# xmcd
#
# Track frame offsets: 
#        150
#        18657
#        37492
#        53328
#        68778
#        87447
#        98615
#        111442
#        137920
#        156007
#        170120
#        187981
#        206579
#        237810
#        250080
#        282645
#        307805
#        320942
#        339417
#
# Disc length: 4718 seconds
#
# Revision: 7
# Processed by: cddbd v1.5.2PL0 Copyright (c) Steve Scherf et al.
# Submitted via: ExactAudioCopy v0.95a5
#
DISCID=17126c13
DTITLE=Various Artist - Afterhours
DYEAR=1994
DGENRE=Jazz
TTITLE0=Sonny Rollins and Co with Herbie Hancock - Round Midnight
TTITLE1=Paul Desmond feat. Jim Hall - Theme from Black Orpheus
TTITLE2=Chet Baker - Somewhere Over the Rainbow
TTITLE3=Don Byas with Martial Solal - I Can't Get Started
TTITLE4=Phineas Newborn - What's New
TTITLE5=Lee Konitz Quintet - These Foolish Things
TTITLE6=Dizzy Gillespie - Everything Happens to Me
TTITLE7=Bob Mintzer - Three Views of a Secret
TTITLE8=Django Reinhardt - I'll Never be the Same
TTITLE9=Coleman Hawkins - April in Paris
TTITLE10=Gigi Gryce feat. Quincy Jones - Evening in Paris
TTITLE11=Duke Ellington - Isfahan
TTITLE12=Red Norvo with Ben Webster - Just a Mood
TTITLE13=Lucky Thompson - But Not for Me
TTITLE14=Art Blakey and The Jazz Messengers - Whisper Not
TTITLE15=Charles Mingus - Flamingo
TTITLE16=Jose Feliciano - Yesterday
TTITLE17=Gary Burton - And on the Third Day
TTITLE18=Zoot Sims Quartet - Don't Worry About Me
EXTD=YEAR: 1994
EXTT0=
EXTT1=
EXTT2=
EXTT3=
EXTT4=
EXTT5=
EXTT6=
EXTT7=
EXTT8=
EXTT9=
EXTT10=
EXTT11=
EXTT12=
EXTT13=
EXTT14=
EXTT15=
EXTT16=
EXTT17=
EXTT18=
PLAYORDER=
